<svg xmlns="http://www.w3.org/2000/svg" viewBox="0 0 1024 1536" shape-rendering="geometricPrecision" fill="black">
<path d="M 385,1147 L 384,1148 L 383,1148 L 382,1149 L 381,1149 L 381,1150 L 380,1151 L 380,1152 L 379,1153 L 379,1156 L 380,1157 L 380,1158 L 383,1161 L 384,1161 L 389,1166 L 389,1172 L 388,1173 L 388,1174 L 387,1175 L 387,1176 L 384,1179 L 383,1179 L 380,1182 L 379,1182 L 378,1183 L 377,1183 L 376,1184 L 378,1186 L 381,1186 L 382,1185 L 383,1185 L 384,1184 L 385,1184 L 386,1183 L 387,1183 L 394,1176 L 394,1175 L 396,1173 L 396,1172 L 397,1171 L 397,1169 L 398,1168 L 398,1156 L 397,1155 L 397,1154 L 396,1153 L 396,1152 L 392,1148 L 391,1148 L 390,1147 Z" />
<path d="M 800,1071 L 800,1074 L 801,1074 L 802,1075 L 805,1075 L 806,1076 L 807,1076 L 808,1077 L 809,1077 L 810,1078 L 810,1079 L 811,1080 L 811,1092 L 812,1093 L 812,1153 L 811,1154 L 811,1158 L 810,1159 L 810,1160 L 808,1162 L 807,1162 L 806,1163 L 802,1163 L 801,1164 L 799,1164 L 800,1165 L 800,1167 L 840,1167 L 840,1163 L 834,1163 L 833,1162 L 832,1162 L 829,1159 L 829,1156 L 828,1155 L 828,1084 L 829,1083 L 829,1080 L 830,1079 L 830,1078 L 831,1077 L 832,1077 L 834,1075 L 838,1075 L 839,1074 L 840,1074 L 840,1071 Z" />
<path d="M 689,1071 L 689,1075 L 693,1075 L 694,1076 L 696,1076 L 698,1078 L 699,1078 L 701,1080 L 701,1081 L 702,1082 L 702,1083 L 703,1084 L 703,1089 L 704,1090 L 704,1150 L 703,1151 L 703,1156 L 702,1157 L 702,1158 L 699,1161 L 698,1161 L 697,1162 L 696,1162 L 695,1163 L 690,1163 L 689,1164 L 690,1165 L 690,1167 L 724,1167 L 724,1164 L 725,1163 L 720,1163 L 719,1162 L 717,1162 L 716,1161 L 715,1161 L 712,1158 L 712,1157 L 711,1156 L 711,1153 L 710,1152 L 710,1092 L 711,1091 L 714,1094 L 714,1095 L 718,1099 L 718,1100 L 722,1104 L 722,1105 L 727,1110 L 727,1111 L 731,1115 L 731,1116 L 736,1121 L 736,1122 L 740,1126 L 740,1127 L 745,1132 L 745,1133 L 749,1137 L 749,1138 L 753,1142 L 753,1143 L 758,1148 L 758,1149 L 762,1153 L 762,1154 L 767,1159 L 767,1160 L 772,1165 L 772,1166 L 774,1168 L 780,1168 L 780,1088 L 781,1087 L 781,1083 L 782,1082 L 782,1081 L 787,1076 L 789,1076 L 790,1075 L 793,1075 L 793,1071 L 759,1071 L 759,1075 L 762,1075 L 763,1076 L 766,1076 L 767,1077 L 768,1077 L 771,1080 L 771,1081 L 772,1082 L 772,1084 L 773,1085 L 773,1136 L 774,1137 L 774,1138 L 773,1139 L 771,1137 L 771,1136 L 766,1131 L 766,1130 L 761,1125 L 761,1124 L 757,1120 L 757,1119 L 753,1115 L 753,1114 L 748,1109 L 748,1108 L 745,1105 L 745,1104 L 740,1099 L 740,1098 L 736,1094 L 736,1093 L 732,1089 L 732,1088 L 728,1084 L 728,1083 L 724,1079 L 724,1078 L 720,1074 L 720,1073 L 718,1071 Z" />
<path d="M 439,1071 L 439,1074 L 442,1074 L 443,1075 L 445,1075 L 446,1076 L 447,1076 L 451,1080 L 451,1119 L 452,1120 L 452,1149 L 451,1150 L 451,1151 L 452,1152 L 452,1153 L 451,1154 L 451,1159 L 448,1162 L 447,1162 L 446,1163 L 443,1163 L 442,1164 L 440,1164 L 440,1167 L 480,1167 L 480,1163 L 475,1163 L 474,1162 L 473,1162 L 469,1158 L 469,1080 L 470,1079 L 470,1078 L 471,1077 L 472,1077 L 474,1075 L 478,1075 L 479,1074 L 479,1071 Z" />
<path d="M 281,1071 L 281,1074 L 283,1074 L 284,1075 L 287,1075 L 289,1077 L 290,1077 L 291,1078 L 291,1079 L 292,1080 L 292,1082 L 293,1083 L 293,1140 L 294,1141 L 294,1145 L 295,1146 L 295,1148 L 296,1149 L 296,1150 L 297,1151 L 297,1152 L 298,1153 L 298,1154 L 300,1156 L 300,1157 L 303,1160 L 304,1160 L 307,1163 L 308,1163 L 309,1164 L 310,1164 L 311,1165 L 312,1165 L 313,1166 L 315,1166 L 316,1167 L 319,1167 L 320,1168 L 324,1168 L 325,1169 L 338,1169 L 339,1168 L 344,1168 L 345,1167 L 347,1167 L 348,1166 L 350,1166 L 351,1165 L 352,1165 L 353,1164 L 354,1164 L 356,1162 L 357,1162 L 363,1156 L 363,1155 L 365,1153 L 365,1152 L 366,1151 L 366,1149 L 367,1148 L 367,1146 L 368,1145 L 368,1140 L 369,1139 L 369,1087 L 370,1086 L 370,1081 L 371,1080 L 371,1079 L 374,1076 L 375,1076 L 376,1075 L 377,1075 L 378,1074 L 379,1074 L 379,1071 L 351,1071 L 351,1074 L 352,1074 L 353,1075 L 356,1075 L 357,1076 L 358,1076 L 360,1078 L 360,1079 L 361,1080 L 361,1082 L 362,1083 L 362,1141 L 361,1142 L 361,1146 L 360,1147 L 360,1148 L 359,1149 L 359,1150 L 358,1151 L 358,1152 L 351,1159 L 350,1159 L 349,1160 L 347,1160 L 346,1161 L 343,1161 L 342,1162 L 330,1162 L 329,1161 L 326,1161 L 325,1160 L 324,1160 L 323,1159 L 322,1159 L 320,1157 L 319,1157 L 315,1153 L 315,1152 L 313,1150 L 313,1149 L 312,1148 L 312,1146 L 311,1145 L 311,1142 L 310,1141 L 310,1080 L 311,1079 L 311,1078 L 313,1076 L 314,1076 L 315,1075 L 317,1075 L 318,1074 L 321,1074 L 321,1071 Z" />
<path d="M 90,1071 L 90,1075 L 93,1075 L 94,1076 L 95,1076 L 96,1077 L 97,1077 L 98,1078 L 99,1078 L 101,1080 L 101,1081 L 103,1083 L 103,1084 L 105,1086 L 105,1087 L 107,1089 L 107,1090 L 108,1091 L 108,1092 L 110,1094 L 110,1095 L 111,1096 L 111,1097 L 113,1099 L 113,1100 L 114,1101 L 114,1102 L 116,1104 L 116,1105 L 117,1106 L 117,1107 L 119,1109 L 119,1110 L 121,1112 L 121,1113 L 122,1114 L 122,1115 L 124,1117 L 124,1118 L 125,1119 L 125,1120 L 127,1122 L 127,1123 L 128,1124 L 128,1158 L 127,1159 L 127,1160 L 125,1162 L 124,1162 L 123,1163 L 121,1163 L 120,1164 L 117,1164 L 117,1165 L 118,1166 L 118,1167 L 156,1167 L 156,1166 L 157,1165 L 157,1164 L 155,1164 L 154,1163 L 150,1163 L 146,1159 L 146,1157 L 145,1156 L 145,1123 L 146,1122 L 146,1121 L 147,1120 L 147,1119 L 149,1117 L 149,1116 L 150,1115 L 150,1114 L 151,1113 L 151,1112 L 152,1111 L 152,1110 L 154,1108 L 154,1107 L 155,1106 L 155,1105 L 156,1104 L 156,1103 L 158,1101 L 158,1100 L 159,1099 L 159,1098 L 160,1097 L 160,1096 L 162,1094 L 162,1093 L 163,1092 L 163,1091 L 164,1090 L 164,1089 L 165,1088 L 165,1087 L 167,1085 L 167,1084 L 169,1082 L 169,1081 L 172,1078 L 173,1078 L 175,1076 L 176,1076 L 177,1075 L 179,1075 L 180,1074 L 180,1072 L 181,1071 L 152,1071 L 152,1074 L 153,1074 L 154,1075 L 157,1075 L 158,1076 L 159,1076 L 160,1077 L 160,1082 L 159,1083 L 159,1085 L 158,1086 L 158,1087 L 157,1088 L 157,1089 L 155,1091 L 155,1092 L 154,1093 L 154,1094 L 153,1095 L 153,1096 L 152,1097 L 152,1098 L 151,1099 L 151,1100 L 150,1101 L 150,1102 L 149,1103 L 149,1104 L 147,1106 L 147,1107 L 146,1108 L 146,1109 L 145,1110 L 145,1111 L 144,1112 L 144,1113 L 143,1114 L 143,1115 L 142,1116 L 141,1115 L 141,1114 L 139,1112 L 139,1111 L 138,1110 L 138,1109 L 137,1108 L 137,1107 L 135,1105 L 135,1104 L 134,1103 L 134,1102 L 132,1100 L 132,1099 L 131,1098 L 131,1097 L 130,1096 L 130,1095 L 128,1093 L 128,1092 L 127,1091 L 127,1090 L 125,1088 L 125,1087 L 124,1086 L 124,1085 L 123,1084 L 123,1082 L 122,1081 L 122,1077 L 124,1075 L 127,1075 L 128,1074 L 130,1074 L 130,1071 Z" />
<path d="M 892,1069 L 891,1070 L 887,1070 L 886,1071 L 883,1071 L 882,1072 L 881,1072 L 880,1073 L 878,1073 L 877,1074 L 876,1074 L 875,1075 L 874,1075 L 872,1077 L 871,1077 L 869,1079 L 868,1079 L 859,1088 L 859,1089 L 857,1091 L 857,1092 L 855,1094 L 855,1095 L 854,1096 L 854,1097 L 853,1098 L 853,1100 L 852,1101 L 852,1102 L 851,1103 L 851,1106 L 850,1107 L 850,1110 L 849,1111 L 849,1118 L 848,1119 L 848,1124 L 849,1125 L 849,1132 L 850,1133 L 850,1136 L 851,1137 L 851,1139 L 852,1140 L 852,1142 L 853,1143 L 853,1144 L 854,1145 L 854,1146 L 856,1148 L 856,1149 L 858,1151 L 858,1152 L 865,1159 L 866,1159 L 868,1161 L 869,1161 L 871,1163 L 872,1163 L 873,1164 L 874,1164 L 875,1165 L 877,1165 L 878,1166 L 880,1166 L 881,1167 L 883,1167 L 884,1168 L 889,1168 L 890,1169 L 907,1169 L 908,1168 L 913,1168 L 914,1167 L 918,1167 L 919,1166 L 922,1166 L 923,1165 L 925,1165 L 926,1164 L 928,1164 L 929,1163 L 930,1163 L 930,1160 L 931,1159 L 931,1153 L 932,1152 L 932,1146 L 933,1145 L 933,1142 L 932,1142 L 931,1141 L 928,1141 L 928,1143 L 927,1144 L 927,1145 L 926,1146 L 926,1147 L 925,1148 L 925,1149 L 924,1150 L 924,1151 L 918,1157 L 917,1157 L 915,1159 L 914,1159 L 912,1161 L 910,1161 L 909,1162 L 906,1162 L 905,1163 L 893,1163 L 892,1162 L 890,1162 L 889,1161 L 888,1161 L 887,1160 L 886,1160 L 885,1159 L 884,1159 L 881,1156 L 880,1156 L 877,1153 L 877,1152 L 874,1149 L 874,1148 L 873,1147 L 873,1146 L 872,1145 L 872,1144 L 871,1143 L 871,1142 L 870,1141 L 870,1140 L 869,1139 L 869,1137 L 868,1136 L 868,1132 L 867,1131 L 867,1126 L 866,1125 L 866,1113 L 867,1112 L 867,1106 L 868,1105 L 868,1101 L 869,1100 L 869,1098 L 870,1097 L 870,1095 L 871,1094 L 871,1093 L 872,1092 L 872,1091 L 874,1089 L 874,1088 L 877,1085 L 877,1084 L 880,1081 L 881,1081 L 884,1078 L 885,1078 L 886,1077 L 887,1077 L 888,1076 L 890,1076 L 891,1075 L 895,1075 L 896,1074 L 901,1074 L 902,1075 L 906,1075 L 907,1076 L 909,1076 L 910,1077 L 911,1077 L 912,1078 L 913,1078 L 915,1080 L 916,1080 L 922,1086 L 922,1087 L 924,1089 L 924,1090 L 925,1091 L 925,1092 L 926,1093 L 926,1096 L 927,1097 L 927,1098 L 931,1098 L 932,1097 L 931,1096 L 931,1082 L 930,1081 L 930,1074 L 928,1074 L 927,1073 L 925,1073 L 924,1072 L 922,1072 L 921,1071 L 917,1071 L 916,1070 L 912,1070 L 911,1069 Z" />
<path d="M 626,1069 L 625,1070 L 621,1070 L 620,1071 L 617,1071 L 616,1072 L 615,1072 L 614,1073 L 612,1073 L 611,1074 L 610,1074 L 608,1076 L 607,1076 L 605,1078 L 604,1078 L 593,1089 L 593,1090 L 592,1091 L 592,1092 L 590,1094 L 590,1095 L 589,1096 L 589,1097 L 588,1098 L 588,1099 L 587,1100 L 587,1102 L 586,1103 L 586,1105 L 585,1106 L 585,1109 L 584,1110 L 584,1116 L 583,1117 L 583,1124 L 584,1125 L 584,1131 L 585,1132 L 585,1135 L 586,1136 L 586,1138 L 587,1139 L 587,1140 L 588,1141 L 588,1143 L 589,1144 L 589,1145 L 591,1147 L 591,1148 L 594,1151 L 594,1152 L 600,1158 L 601,1158 L 604,1161 L 605,1161 L 607,1163 L 608,1163 L 609,1164 L 610,1164 L 611,1165 L 613,1165 L 614,1166 L 616,1166 L 617,1167 L 619,1167 L 620,1168 L 625,1168 L 626,1169 L 639,1169 L 640,1168 L 645,1168 L 646,1167 L 648,1167 L 649,1166 L 651,1166 L 652,1165 L 653,1165 L 654,1164 L 655,1164 L 656,1163 L 657,1163 L 659,1161 L 660,1161 L 662,1159 L 663,1159 L 671,1151 L 671,1150 L 673,1148 L 673,1147 L 675,1145 L 675,1144 L 676,1143 L 676,1142 L 677,1141 L 677,1140 L 678,1139 L 678,1137 L 679,1136 L 679,1134 L 680,1133 L 680,1130 L 681,1129 L 681,1122 L 682,1121 L 682,1115 L 681,1114 L 681,1108 L 680,1107 L 680,1104 L 679,1103 L 679,1101 L 678,1100 L 678,1098 L 677,1097 L 677,1096 L 676,1095 L 676,1094 L 674,1092 L 674,1091 L 672,1089 L 672,1088 L 664,1080 L 663,1080 L 660,1077 L 659,1077 L 657,1075 L 656,1075 L 655,1074 L 654,1074 L 653,1073 L 652,1073 L 651,1072 L 649,1072 L 648,1071 L 645,1071 L 644,1070 L 639,1070 L 638,1069 Z" />
<path d="M 532,1069 L 531,1070 L 527,1070 L 526,1071 L 523,1071 L 522,1072 L 521,1072 L 520,1073 L 518,1073 L 517,1074 L 516,1074 L 515,1075 L 514,1075 L 513,1076 L 512,1076 L 509,1079 L 508,1079 L 499,1088 L 499,1089 L 497,1091 L 497,1092 L 496,1093 L 496,1094 L 494,1096 L 494,1097 L 493,1098 L 493,1100 L 492,1101 L 492,1103 L 491,1104 L 491,1106 L 490,1107 L 490,1110 L 489,1111 L 489,1131 L 490,1132 L 490,1135 L 491,1136 L 491,1138 L 492,1139 L 492,1141 L 493,1142 L 493,1143 L 494,1144 L 494,1145 L 495,1146 L 495,1147 L 497,1149 L 497,1150 L 507,1160 L 508,1160 L 510,1162 L 511,1162 L 512,1163 L 513,1163 L 514,1164 L 515,1164 L 516,1165 L 517,1165 L 518,1166 L 520,1166 L 521,1167 L 524,1167 L 525,1168 L 530,1168 L 531,1169 L 546,1169 L 547,1168 L 553,1168 L 554,1167 L 558,1167 L 559,1166 L 562,1166 L 563,1165 L 565,1165 L 566,1164 L 569,1164 L 570,1163 L 570,1161 L 571,1160 L 571,1154 L 572,1153 L 572,1146 L 573,1145 L 573,1142 L 572,1142 L 571,1141 L 570,1141 L 569,1140 L 568,1141 L 568,1143 L 567,1144 L 567,1146 L 566,1147 L 566,1148 L 564,1150 L 564,1151 L 557,1158 L 556,1158 L 554,1160 L 553,1160 L 552,1161 L 550,1161 L 549,1162 L 547,1162 L 546,1163 L 533,1163 L 532,1162 L 530,1162 L 529,1161 L 528,1161 L 527,1160 L 526,1160 L 525,1159 L 524,1159 L 522,1157 L 521,1157 L 516,1152 L 516,1151 L 514,1149 L 514,1148 L 513,1147 L 513,1146 L 512,1145 L 512,1144 L 511,1143 L 511,1142 L 510,1141 L 510,1140 L 509,1139 L 509,1136 L 508,1135 L 508,1132 L 507,1131 L 507,1125 L 506,1124 L 506,1113 L 507,1112 L 507,1106 L 508,1105 L 508,1101 L 509,1100 L 509,1098 L 510,1097 L 510,1096 L 511,1095 L 511,1093 L 512,1092 L 512,1091 L 514,1089 L 514,1088 L 516,1086 L 516,1085 L 520,1081 L 521,1081 L 524,1078 L 525,1078 L 526,1077 L 527,1077 L 528,1076 L 530,1076 L 531,1075 L 535,1075 L 536,1074 L 541,1074 L 542,1075 L 546,1075 L 547,1076 L 549,1076 L 550,1077 L 551,1077 L 552,1078 L 553,1078 L 555,1080 L 556,1080 L 561,1085 L 561,1086 L 563,1088 L 563,1089 L 565,1091 L 565,1093 L 566,1094 L 566,1096 L 567,1097 L 567,1098 L 571,1098 L 572,1097 L 571,1096 L 571,1082 L 570,1081 L 570,1074 L 568,1074 L 567,1073 L 565,1073 L 564,1072 L 561,1072 L 560,1071 L 557,1071 L 556,1070 L 551,1070 L 550,1069 Z" />
<path d="M 221,1069 L 220,1070 L 216,1070 L 215,1071 L 212,1071 L 211,1072 L 210,1072 L 209,1073 L 208,1073 L 207,1074 L 205,1074 L 203,1076 L 202,1076 L 201,1077 L 200,1077 L 196,1081 L 195,1081 L 195,1082 L 194,1083 L 193,1083 L 192,1084 L 192,1085 L 188,1089 L 188,1090 L 186,1092 L 186,1093 L 184,1095 L 184,1096 L 183,1097 L 183,1098 L 182,1099 L 182,1101 L 181,1102 L 181,1104 L 180,1105 L 180,1108 L 179,1109 L 179,1115 L 178,1116 L 178,1126 L 179,1127 L 179,1132 L 180,1133 L 180,1135 L 181,1136 L 181,1138 L 182,1139 L 182,1141 L 183,1142 L 183,1143 L 185,1145 L 185,1146 L 186,1147 L 186,1148 L 189,1151 L 189,1152 L 196,1159 L 197,1159 L 199,1161 L 200,1161 L 202,1163 L 203,1163 L 204,1164 L 205,1164 L 206,1165 L 208,1165 L 209,1166 L 211,1166 L 212,1167 L 214,1167 L 215,1168 L 220,1168 L 221,1169 L 234,1169 L 235,1168 L 239,1168 L 240,1167 L 243,1167 L 244,1166 L 246,1166 L 247,1165 L 248,1165 L 249,1164 L 250,1164 L 251,1163 L 252,1163 L 254,1161 L 255,1161 L 260,1156 L 261,1156 L 262,1155 L 262,1154 L 267,1149 L 267,1148 L 269,1146 L 269,1145 L 270,1144 L 270,1143 L 271,1142 L 271,1141 L 272,1140 L 272,1139 L 273,1138 L 273,1136 L 274,1135 L 274,1133 L 275,1132 L 275,1129 L 276,1128 L 276,1110 L 275,1109 L 275,1106 L 274,1105 L 274,1102 L 273,1101 L 273,1100 L 272,1099 L 272,1097 L 271,1096 L 271,1095 L 269,1093 L 269,1092 L 268,1091 L 268,1090 L 264,1086 L 264,1085 L 262,1083 L 261,1083 L 256,1078 L 255,1078 L 253,1076 L 252,1076 L 251,1075 L 250,1075 L 249,1074 L 248,1074 L 247,1073 L 246,1073 L 245,1072 L 243,1072 L 242,1071 L 240,1071 L 239,1070 L 235,1070 L 234,1069 Z" />
<path d="M 488,253 L 487,254 L 475,254 L 474,255 L 466,255 L 465,256 L 459,256 L 458,257 L 451,257 L 450,258 L 445,258 L 444,259 L 440,259 L 439,260 L 435,260 L 434,261 L 430,261 L 429,262 L 426,262 L 425,263 L 422,263 L 421,264 L 418,264 L 417,265 L 414,265 L 413,266 L 410,266 L 409,267 L 407,267 L 406,268 L 404,268 L 403,269 L 400,269 L 399,270 L 397,270 L 396,271 L 394,271 L 393,272 L 391,272 L 390,273 L 388,273 L 387,274 L 385,274 L 384,275 L 383,275 L 382,276 L 380,276 L 379,277 L 377,277 L 376,278 L 375,278 L 374,279 L 372,279 L 371,280 L 370,280 L 369,281 L 368,281 L 367,282 L 365,282 L 364,283 L 363,283 L 362,284 L 361,284 L 360,285 L 358,285 L 357,286 L 356,286 L 355,287 L 354,287 L 353,288 L 352,288 L 351,289 L 350,289 L 349,290 L 348,290 L 347,291 L 346,291 L 345,292 L 344,292 L 343,293 L 342,293 L 341,294 L 340,294 L 339,295 L 338,295 L 336,297 L 335,297 L 334,298 L 333,298 L 332,299 L 331,299 L 330,300 L 329,300 L 327,302 L 326,302 L 325,303 L 324,303 L 322,305 L 321,305 L 320,306 L 319,306 L 317,308 L 316,308 L 314,310 L 313,310 L 311,312 L 310,312 L 308,314 L 307,314 L 305,316 L 304,316 L 302,318 L 301,318 L 298,321 L 297,321 L 295,323 L 294,323 L 291,326 L 290,326 L 286,330 L 285,330 L 281,334 L 280,334 L 274,340 L 273,340 L 264,349 L 263,349 L 245,367 L 245,368 L 236,377 L 236,378 L 231,383 L 231,384 L 226,389 L 226,390 L 223,393 L 223,394 L 219,398 L 219,399 L 217,401 L 217,402 L 214,405 L 214,406 L 212,408 L 212,409 L 210,411 L 210,412 L 207,415 L 207,416 L 206,417 L 206,418 L 204,420 L 204,421 L 202,423 L 202,424 L 201,425 L 201,426 L 199,428 L 199,429 L 198,430 L 198,431 L 196,433 L 196,434 L 195,435 L 195,436 L 193,438 L 193,439 L 192,440 L 192,441 L 191,442 L 191,443 L 190,444 L 190,445 L 189,446 L 189,447 L 188,448 L 188,449 L 187,450 L 187,451 L 186,452 L 186,453 L 185,454 L 185,455 L 184,456 L 184,457 L 183,458 L 183,459 L 182,460 L 182,461 L 181,462 L 181,463 L 180,464 L 180,465 L 179,466 L 179,468 L 178,469 L 178,470 L 177,471 L 177,472 L 176,473 L 176,474 L 175,475 L 175,477 L 174,478 L 174,479 L 173,480 L 173,482 L 172,483 L 172,484 L 171,485 L 171,487 L 170,488 L 170,490 L 169,491 L 169,492 L 168,493 L 168,495 L 167,496 L 167,498 L 166,499 L 166,501 L 165,502 L 165,504 L 164,505 L 164,507 L 163,508 L 163,510 L 162,511 L 162,514 L 161,515 L 161,517 L 160,518 L 160,521 L 159,522 L 159,525 L 158,526 L 158,529 L 157,530 L 157,532 L 156,533 L 156,537 L 155,538 L 155,542 L 154,543 L 154,546 L 153,547 L 153,552 L 152,553 L 152,558 L 151,559 L 151,564 L 150,565 L 150,571 L 149,572 L 149,580 L 148,581 L 148,591 L 147,592 L 147,648 L 148,649 L 148,659 L 149,660 L 149,668 L 150,669 L 150,675 L 151,676 L 151,681 L 152,682 L 152,686 L 153,687 L 153,692 L 154,693 L 154,697 L 155,698 L 155,701 L 156,702 L 156,705 L 157,706 L 157,709 L 158,710 L 158,713 L 159,714 L 159,717 L 160,718 L 160,720 L 161,721 L 161,724 L 162,725 L 162,727 L 163,728 L 163,730 L 164,731 L 164,733 L 165,734 L 165,736 L 166,737 L 166,739 L 167,740 L 167,742 L 168,743 L 168,745 L 169,746 L 169,747 L 170,748 L 170,750 L 171,751 L 171,752 L 172,753 L 172,755 L 173,756 L 173,757 L 174,758 L 174,760 L 175,761 L 175,762 L 176,763 L 176,765 L 177,766 L 177,767 L 178,768 L 178,769 L 179,770 L 179,771 L 180,772 L 180,773 L 181,774 L 181,776 L 182,777 L 182,778 L 183,779 L 183,780 L 184,781 L 184,782 L 185,783 L 185,784 L 186,785 L 186,786 L 187,787 L 187,788 L 189,790 L 189,791 L 190,792 L 190,793 L 191,794 L 191,795 L 192,796 L 192,797 L 193,798 L 193,799 L 195,801 L 195,802 L 196,803 L 196,804 L 197,805 L 197,806 L 199,808 L 199,809 L 201,811 L 201,812 L 202,813 L 202,814 L 204,816 L 204,817 L 206,819 L 206,820 L 208,822 L 208,823 L 210,825 L 210,826 L 212,828 L 212,829 L 215,832 L 215,833 L 218,836 L 218,837 L 221,840 L 221,841 L 224,844 L 224,845 L 228,849 L 228,850 L 233,855 L 233,856 L 239,862 L 239,863 L 272,896 L 273,896 L 278,901 L 279,901 L 283,905 L 284,905 L 288,909 L 289,909 L 293,913 L 294,913 L 297,916 L 298,916 L 300,918 L 301,918 L 304,921 L 305,921 L 307,923 L 308,923 L 310,925 L 311,925 L 313,927 L 314,927 L 316,929 L 317,929 L 319,931 L 320,931 L 321,932 L 322,932 L 324,934 L 325,934 L 326,935 L 327,935 L 329,937 L 330,937 L 331,938 L 332,938 L 333,939 L 334,939 L 336,941 L 337,941 L 338,942 L 339,942 L 340,943 L 341,943 L 342,944 L 343,944 L 344,945 L 345,945 L 346,946 L 347,946 L 348,947 L 349,947 L 350,948 L 351,948 L 352,949 L 353,949 L 354,950 L 355,950 L 356,951 L 357,951 L 358,952 L 359,952 L 360,953 L 362,953 L 363,954 L 364,954 L 365,955 L 366,955 L 367,956 L 368,956 L 369,957 L 371,957 L 372,958 L 373,958 L 374,959 L 376,959 L 377,960 L 378,960 L 379,961 L 381,961 L 382,962 L 383,962 L 384,963 L 386,963 L 387,964 L 389,964 L 390,965 L 392,965 L 393,966 L 395,966 L 396,967 L 397,967 L 398,968 L 400,968 L 401,969 L 404,969 L 405,970 L 407,970 L 408,971 L 410,971 L 411,972 L 414,972 L 415,973 L 417,973 L 418,974 L 421,974 L 422,975 L 425,975 L 426,976 L 429,976 L 430,977 L 433,977 L 434,978 L 438,978 L 439,979 L 443,979 L 444,980 L 448,980 L 449,981 L 454,981 L 455,982 L 460,982 L 461,983 L 468,983 L 469,984 L 476,984 L 477,985 L 487,985 L 488,986 L 506,986 L 507,987 L 517,987 L 518,986 L 540,986 L 541,985 L 551,985 L 552,984 L 561,984 L 562,983 L 568,983 L 569,982 L 574,982 L 575,981 L 579,981 L 580,980 L 585,980 L 586,979 L 589,979 L 590,978 L 594,978 L 595,977 L 598,977 L 599,976 L 602,976 L 603,975 L 606,975 L 607,974 L 610,974 L 611,973 L 613,973 L 614,972 L 616,972 L 617,971 L 620,971 L 621,970 L 623,970 L 624,969 L 626,969 L 627,968 L 629,968 L 630,967 L 632,967 L 633,966 L 635,966 L 636,965 L 638,965 L 639,964 L 640,964 L 641,963 L 643,963 L 644,962 L 646,962 L 647,961 L 648,961 L 649,960 L 651,960 L 652,959 L 653,959 L 654,958 L 656,958 L 657,957 L 658,957 L 659,956 L 660,956 L 661,955 L 663,955 L 664,954 L 665,954 L 666,953 L 667,953 L 668,952 L 669,952 L 670,951 L 671,951 L 672,950 L 673,950 L 674,949 L 675,949 L 676,948 L 677,948 L 678,947 L 679,947 L 680,946 L 681,946 L 682,945 L 683,945 L 684,944 L 685,944 L 686,943 L 687,943 L 688,942 L 689,942 L 690,941 L 691,941 L 693,939 L 694,939 L 695,938 L 696,938 L 697,937 L 698,937 L 700,935 L 701,935 L 702,934 L 703,934 L 705,932 L 706,932 L 708,930 L 709,930 L 710,929 L 711,929 L 713,927 L 714,927 L 716,925 L 717,925 L 719,923 L 720,923 L 722,921 L 723,921 L 726,918 L 727,918 L 729,916 L 730,916 L 733,913 L 734,913 L 737,910 L 738,910 L 742,906 L 743,906 L 747,902 L 748,902 L 754,896 L 755,896 L 770,881 L 771,881 L 771,880 L 772,879 L 773,879 L 774,878 L 774,877 L 775,876 L 776,876 L 776,875 L 787,864 L 787,863 L 793,857 L 793,856 L 798,851 L 798,850 L 802,846 L 802,845 L 805,842 L 805,841 L 808,838 L 808,837 L 811,834 L 811,833 L 813,831 L 813,830 L 815,828 L 815,827 L 817,825 L 817,824 L 819,822 L 819,821 L 821,819 L 821,818 L 823,816 L 823,815 L 824,814 L 824,813 L 826,811 L 826,810 L 827,809 L 827,808 L 829,806 L 829,805 L 830,804 L 830,803 L 831,802 L 831,801 L 833,799 L 833,798 L 834,797 L 834,796 L 835,795 L 835,794 L 836,793 L 836,792 L 837,791 L 837,790 L 838,789 L 838,788 L 839,787 L 839,786 L 840,785 L 840,784 L 841,783 L 841,782 L 842,781 L 842,780 L 843,779 L 843,778 L 844,777 L 844,776 L 845,775 L 845,774 L 846,773 L 846,772 L 847,771 L 847,769 L 848,768 L 848,767 L 849,766 L 849,765 L 850,764 L 850,762 L 851,761 L 851,760 L 852,759 L 852,757 L 853,756 L 853,755 L 854,754 L 854,752 L 855,751 L 855,749 L 856,748 L 856,747 L 857,746 L 857,744 L 858,743 L 858,741 L 859,740 L 859,738 L 860,737 L 860,735 L 861,734 L 861,732 L 862,731 L 862,729 L 863,728 L 863,725 L 864,724 L 864,722 L 865,721 L 865,718 L 866,717 L 866,714 L 867,713 L 867,710 L 868,709 L 868,707 L 869,706 L 869,702 L 870,701 L 870,698 L 871,697 L 871,693 L 872,692 L 872,688 L 873,687 L 873,682 L 874,681 L 874,676 L 875,675 L 875,668 L 876,667 L 876,660 L 877,659 L 877,648 L 878,647 L 878,594 L 877,593 L 877,583 L 876,582 L 876,575 L 875,574 L 875,567 L 874,566 L 874,561 L 873,560 L 873,555 L 872,554 L 872,549 L 871,548 L 871,544 L 870,543 L 870,540 L 869,539 L 869,535 L 868,534 L 868,531 L 867,530 L 867,527 L 866,526 L 866,523 L 865,522 L 865,520 L 864,519 L 864,516 L 863,515 L 863,513 L 862,512 L 862,510 L 861,509 L 861,507 L 860,506 L 860,504 L 859,503 L 859,501 L 858,500 L 858,498 L 857,497 L 857,495 L 856,494 L 856,493 L 855,492 L 855,490 L 854,489 L 854,487 L 853,486 L 853,485 L 852,484 L 852,482 L 851,481 L 851,480 L 850,479 L 850,478 L 849,477 L 849,475 L 848,474 L 859,463 L 859,462 L 861,460 L 861,459 L 863,457 L 863,456 L 864,455 L 864,454 L 865,453 L 865,452 L 866,451 L 866,449 L 867,448 L 867,446 L 868,445 L 868,443 L 869,442 L 869,439 L 870,438 L 870,433 L 871,432 L 871,410 L 870,409 L 870,404 L 869,403 L 869,400 L 868,399 L 868,396 L 867,395 L 867,393 L 866,392 L 866,390 L 865,389 L 865,387 L 864,386 L 864,385 L 863,384 L 863,382 L 862,381 L 862,380 L 861,379 L 861,378 L 860,377 L 860,376 L 859,375 L 859,374 L 857,372 L 857,371 L 855,369 L 855,368 L 853,366 L 853,365 L 849,361 L 849,360 L 841,352 L 840,352 L 836,348 L 835,348 L 833,346 L 832,346 L 830,344 L 829,344 L 828,343 L 827,343 L 826,342 L 825,342 L 824,341 L 823,341 L 822,340 L 820,340 L 819,339 L 817,339 L 816,338 L 813,338 L 812,337 L 808,337 L 807,336 L 791,336 L 790,337 L 786,337 L 785,338 L 782,338 L 781,339 L 780,339 L 779,340 L 777,340 L 776,341 L 775,341 L 774,342 L 773,342 L 772,343 L 771,343 L 770,344 L 769,344 L 767,346 L 766,346 L 763,349 L 762,349 L 757,344 L 756,344 L 750,338 L 749,338 L 744,333 L 743,333 L 739,329 L 738,329 L 735,326 L 734,326 L 731,323 L 730,323 L 728,321 L 727,321 L 725,319 L 724,319 L 721,316 L 720,316 L 718,314 L 717,314 L 715,312 L 714,312 L 713,311 L 712,311 L 710,309 L 709,309 L 707,307 L 706,307 L 705,306 L 704,306 L 702,304 L 701,304 L 700,303 L 699,303 L 697,301 L 696,301 L 695,300 L 694,300 L 693,299 L 692,299 L 690,297 L 689,297 L 688,296 L 687,296 L 686,295 L 685,295 L 684,294 L 683,294 L 682,293 L 681,293 L 680,292 L 679,292 L 678,291 L 677,291 L 676,290 L 675,290 L 674,289 L 673,289 L 672,288 L 671,288 L 670,287 L 669,287 L 668,286 L 667,286 L 666,285 L 664,285 L 663,284 L 662,284 L 661,283 L 660,283 L 659,282 L 658,282 L 657,281 L 655,281 L 654,280 L 653,280 L 652,279 L 650,279 L 649,278 L 648,278 L 647,277 L 645,277 L 644,276 L 642,276 L 641,275 L 640,275 L 639,274 L 637,274 L 636,273 L 634,273 L 633,272 L 631,272 L 630,271 L 628,271 L 627,270 L 625,270 L 624,269 L 621,269 L 620,268 L 618,268 L 617,267 L 615,267 L 614,266 L 611,266 L 610,265 L 607,265 L 606,264 L 603,264 L 602,263 L 599,263 L 598,262 L 595,262 L 594,261 L 590,261 L 589,260 L 585,260 L 584,259 L 579,259 L 578,258 L 573,258 L 572,257 L 567,257 L 566,256 L 559,256 L 558,255 L 549,255 L 548,254 L 536,254 L 535,253 Z" />
</svg>